<?xml version="1.0" encoding="utf-8"?>
<!-- Generator: Adobe Illustrator 25.3.1, SVG Export Plug-In . SVG Version: 6.00 Build 0)  -->
<svg version="1.1" id="レイヤー_1" xmlns="http://www.w3.org/2000/svg" xmlns:xlink="http://www.w3.org/1999/xlink" x="0px"
	 y="0px" viewBox="0 0 600 450" style="enable-background:new 0 0 600 450;" xml:space="preserve">
<style type="text/css">
	.st0{display:none;}
	.st1{display:inline;opacity:0.25;}
	.st2{font-family:'ToppanBunkyuMidashiGothicStdN-ExtraBold-83pv-RKSJ-H';}
	.st3{font-size:92.9544px;}
	.st4{fill:none;stroke:#F41BB2;stroke-width:8;stroke-miterlimit:10;}
	.st5{fill:none;stroke:#35FAFD;stroke-width:6;stroke-miterlimit:10;}
	.st6{fill:none;stroke:#FE9002;stroke-width:8;stroke-miterlimit:10;}
	.st7{fill:none;stroke:#00F80E;stroke-width:8;stroke-miterlimit:10;}
	.st8{fill:none;stroke:#6A1EDE;stroke-width:8;stroke-miterlimit:10;}
	.st9{fill:none;stroke:#F41BB2;stroke-width:6;stroke-miterlimit:10;}
	.st10{fill:none;stroke:#35FAFD;stroke-width:8;stroke-miterlimit:10;}
	.st11{fill:none;stroke:#FE9002;stroke-width:6;stroke-miterlimit:10;}
	.st12{fill:none;stroke:#00ED05;stroke-width:8;stroke-miterlimit:10;}
	.st13{fill:none;stroke:#F41BB2;stroke-width:4;stroke-miterlimit:10;}
</style>
<text transform="matrix(0.5917 0 0 1 52.5 252.4221)" class="st0"><tspan x="0" y="0" class="st1 st2 st3">パーセントバルーン</tspan></text>
<path class="st4" d="M75,198c-5,17-15.5,37.5-15.5,37.5"/>
<path class="st4" d="M88.5,203.5c7,12,12.5,32.5,12.5,32.5"/>
<path class="st5" d="M117.5,217.5c33,0,33,0,33,0"/>
<path class="st6" d="M171.5,215.5l33.58-15.35c0.55-0.25,1.15,0.27,0.97,0.85l-6.54,21.5"/>
<path class="st6" d="M184.5,187.5c-2.14,50.26-1.56,66.16,27.5,52.5"/>
<path class="st7" d="M225,196c7,3,15,9,15,9"/>
<path class="st7" d="M232.5,241.5c18.64-11.27,29.48-18.46,39.5-44.5"/>
<path class="st8" d="M295.5,182.5c0,67,0,67,0,67"/>
<path class="st8" d="M299.5,209.5C309,215,314,221,314,221"/>
<path class="st4" d="M348.5,205.5c-5,15-14,30-14,30"/>
<path class="st4" d="M364.22,205.5c6.28,10,9.98,24,9.98,24"/>
<path class="st9" d="M369.21,187.5c2.29,3,4.29,8,4.29,8"/>
<path class="st9" d="M377.08,181.5c2.42,3,3.42,6,3.42,6"/>
<path class="st10" d="M399.69,199.5c-1.19,20-10.19,44-10.19,44"/>
<path class="st10" d="M411.44,191.5c0.06,41-5.94,70,20.06,21"/>
<path class="st11" d="M448.24,217.5c31.26,0,31.26,0,31.26,0"/>
<path class="st12" d="M497,192c10,5,15.5,10.5,15.5,10.5"/>
<path class="st12" d="M506.55,243.5C530,230,542,200,542,200"/>
<path class="st13" d="M99.5,179.5c-2.16,0.02-6.59,4.41-6,8c0.39,2.41,4.27,7.16,6,7c2.06-0.19,6.56-2.92,7-6
	C107.03,184.77,101.65,179.48,99.5,179.5z"/>
</svg>
